<?xml version="1.0" encoding="UTF-8" standalone="no"?>
<!-- Created with Inkscape (http://www.inkscape.org/) -->

<svg
   xmlns:dc="http://purl.org/dc/elements/1.1/"
   xmlns:cc="http://creativecommons.org/ns#"
   xmlns:rdf="http://www.w3.org/1999/02/22-rdf-syntax-ns#"
   xmlns:svg="http://www.w3.org/2000/svg"
   xmlns="http://www.w3.org/2000/svg"
   xmlns:sodipodi="http://sodipodi.sourceforge.net/DTD/sodipodi-0.dtd"
   xmlns:inkscape="http://www.inkscape.org/namespaces/inkscape"
   width="72mm"
   height="46mm"
   viewBox="0 0 72 46"
   version="1.1"
   id="svg1705"
   inkscape:version="0.92.3 (2405546, 2018-03-11)"
   sodipodi:docname="logo.svg">
  <defs
     id="defs1699" />
  <sodipodi:namedview
     id="base"
     pagecolor="#ffffff"
     bordercolor="#666666"
     borderopacity="1.0"
     inkscape:pageopacity="0.0"
     inkscape:pageshadow="2"
     inkscape:zoom="0.98994949"
     inkscape:cx="70.6359"
     inkscape:cy="506.36462"
     inkscape:document-units="mm"
     inkscape:current-layer="layer1"
     showgrid="false"
     showguides="false"
     inkscape:window-width="3840"
     inkscape:window-height="2081"
     inkscape:window-x="-9"
     inkscape:window-y="-9"
     inkscape:window-maximized="1" />
  <metadata
     id="metadata1702">
    <rdf:RDF>
      <cc:Work
         rdf:about="">
        <dc:format>image/svg+xml</dc:format>
        <dc:type
           rdf:resource="http://purl.org/dc/dcmitype/StillImage" />
        <dc:title></dc:title>
      </cc:Work>
    </rdf:RDF>
  </metadata>
  <g
     inkscape:label="Layer 1"
     inkscape:groupmode="layer"
     id="layer1"
     transform="translate(0,-251)">
    <g
       inkscape:export-ydpi="600"
       inkscape:export-xdpi="600"
       inkscape:export-filename="C:\OneDrive\GraphicDesigns\Logo\LogoOnly.png"
       style="fill:#ffffff;fill-opacity:1;stroke:#ffffff;stroke-width:3.41416881;stroke-miterlimit:4;stroke-dasharray:none;stroke-opacity:1"
       transform="matrix(0.44195148,0,0,-0.43675506,-108.8343,844.14912)"
       id="g5053">
      <g
         style="fill:#ffffff;fill-opacity:1;stroke:#ffffff;stroke-width:3.41416881;stroke-miterlimit:4;stroke-dasharray:none;stroke-opacity:1"
         id="g5047"
         transform="translate(330.78944,1268.7129)">
        <path
           d="m 0,0 h -24.348 -9.511 c -3.42,0 -6.193,-2.773 -6.193,-6.194 0,-3.42 2.773,-6.193 6.193,-6.193 v 0 H -24.348 0 c 3.421,0 6.194,2.773 6.194,6.193 C 6.194,-2.773 3.421,0 0,0"
           style="fill:#ffffff;fill-opacity:1;fill-rule:nonzero;stroke:#ffffff;stroke-width:3.41416881;stroke-miterlimit:4;stroke-dasharray:none;stroke-opacity:1"
           id="path5045"
           inkscape:connector-curvature="0" />
      </g>
      <g
         style="fill:#ffffff;fill-opacity:1;stroke:#ffffff;stroke-width:3.41416881;stroke-miterlimit:4;stroke-dasharray:none;stroke-opacity:1"
         id="g5051"
         transform="translate(388.58864,1297.5082)">
        <path
           d="m 0,0 c -3.344,3.054 -7.091,5.68 -11.139,7.816 4.091,2.16 7.874,4.821 11.245,7.917 9.54,8.747 15.918,20.938 17.175,34.596 0.16,1.74 -0.415,3.451 -1.592,4.742 -1.178,1.291 -2.829,2.019 -4.576,2.019 h -94.548 -11.083 l -38.295,0.307 c -2.712,0.021 -5.126,-1.728 -5.95,-4.312 -0.824,-2.584 0.131,-5.407 2.355,-6.96 l 54.664,-38.171 -54.664,-38.171 c -2.805,-1.959 -3.491,-5.82 -1.532,-8.625 1.958,-2.804 5.819,-3.49 8.624,-1.532 l 61.936,43.25 c 1.664,1.162 2.648,3.048 2.648,5.078 0,2.029 -0.984,3.916 -2.648,5.078 l -45.565,31.818 18.347,-0.147 h 0.05 11.113 87.173 C 1.691,36.969 -2.534,30.124 -8.268,24.861 -15.631,18.114 -25.384,14.013 -36.161,14.01 c -1.631,0 -3.226,-0.661 -4.38,-1.814 -1.153,-1.154 -1.813,-2.749 -1.813,-4.38 0,-1.631 0.66,-3.226 1.813,-4.379 1.154,-1.154 2.749,-1.814 4.38,-1.814 10.736,-0.004 20.458,-4.074 27.813,-10.775 5.708,-5.21 9.933,-11.985 12.017,-19.643 h -31.326 c -3.42,0 -6.193,-2.773 -6.193,-6.194 0,-3.421 2.773,-6.194 6.193,-6.194 v 10e-4 h 38.749 c 1.747,0 3.414,0.738 4.588,2.032 1.174,1.295 1.746,3.025 1.576,4.764 C 15.927,-20.8 9.529,-8.689 0,0"
           style="fill:#ffffff;fill-opacity:1;fill-rule:nonzero;stroke:#ffffff;stroke-width:3.41416881;stroke-miterlimit:4;stroke-dasharray:none;stroke-opacity:1"
           id="path5049"
           inkscape:connector-curvature="0" />
      </g>
    </g>
  </g>
</svg>
